<svg xmlns="http://www.w3.org/2000/svg" version="1.1" xmlns:xlink="http://www.w3.org/1999/xlink" xmlns:svgjs="http://svgjs.com/svgjs" width="3450.000000pt" height="3450.000000pt"><svg version="1.0" xmlns="http://www.w3.org/2000/svg" width="3450.000000pt" height="3450.000000pt" viewBox="0 0 3450.000000 3450.000000" preserveAspectRatio="xMidYMid meet">
<metadata>
Created by potrace 1.14, written by Peter Selinger 2001-2017
</metadata>
<g transform="translate(0.000000,3450.000000) scale(0.100000,-0.100000)" fill="#000000" stroke="none">
<path d="M2162 32636 c-9 -16 -8 -3747 2 -3754 12 -7 14856 -6 15145 2 211 5
223 4 209 -12 -14 -15 -266 -354 -430 -577 -77 -105 -282 -388 -330 -458 -18
-26 -41 -57 -50 -70 -25 -32 -194 -273 -258 -368 -30 -44 -60 -86 -66 -92 -11
-12 -2014 -3013 -2049 -3070 -33 -54 -1900 -2852 -1906 -2857 -3 -3 -8 -10
-10 -15 -4 -9 -7677 -11524 -9318 -13983 -361 -541 -661 -991 -666 -1000 -14
-23 -688 -1034 -698 -1047 -4 -5 -85 -127 -180 -269 l-172 -259 0 -1408 c0
-936 3 -1409 10 -1410 60 -4 21515 0 21521 4 5 3 9 824 9 1884 l0 1878 -7995
-1 c-4397 -1 -8057 -3 -8132 -5 -76 -3 -138 -3 -138 -1 0 3 90 123 118 157 4
6 43 57 87 115 44 58 82 107 85 110 22 19 553 754 715 990 44 63 1786 2676
3872 5805 2086 3130 3797 5697 3803 5705 6 8 593 889 1305 1958 712 1069 1302
1953 1311 1965 12 17 254 380 331 497 9 14 730 1096 1602 2405 873 1309 1591
2387 1596 2396 6 9 32 50 60 90 27 41 52 78 54 84 2 5 8 14 13 20 5 5 113 165
238 355 126 190 233 350 237 355 5 6 23 33 40 60 18 28 36 55 40 60 11 14 265
396 278 417 5 9 86 130 178 268 92 138 171 260 175 273 5 16 8 2737 3 2802 -1
13 -20630 14 -20639 1z"></path>
<path d="M27488 32565 c-2 -1 -55 -5 -118 -9 -63 -4 -131 -8 -150 -10 -19 -3
-66 -7 -105 -11 -140 -13 -411 -58 -575 -95 -52 -12 -104 -23 -115 -26 -11 -2
-51 -13 -90 -24 -38 -11 -79 -23 -90 -25 -52 -12 -311 -102 -434 -151 -116
-47 -423 -193 -471 -224 -8 -5 -58 -35 -110 -66 -667 -396 -1182 -978 -1484
-1676 -73 -168 -154 -402 -192 -553 -9 -33 -20 -78 -26 -100 -5 -22 -12 -51
-14 -65 -3 -13 -12 -56 -20 -95 -8 -38 -17 -86 -20 -105 -3 -19 -9 -60 -14
-90 -14 -84 -29 -227 -45 -430 -7 -84 -7 -554 -1 -586 2 -11 7 -65 10 -120 4
-54 8 -110 10 -124 2 -14 6 -54 10 -90 4 -36 9 -76 11 -90 6 -35 13 -77 20
-130 3 -25 8 -52 10 -60 2 -8 7 -28 9 -45 54 -313 168 -691 308 -1020 92 -215
158 -340 343 -654 64 -108 321 -445 431 -566 540 -593 1194 -1014 1969 -1268
238 -78 567 -158 745 -182 19 -3 58 -9 85 -15 28 -5 77 -12 110 -16 33 -3 68
-8 78 -10 18 -3 83 -10 192 -19 287 -25 814 -25 1010 0 17 2 57 6 90 10 316
30 731 120 1050 226 908 305 1676 861 2246 1629 58 78 210 304 223 330 11 23
31 56 43 71 15 20 54 92 137 254 139 270 248 539 337 835 42 140 113 426 124
495 3 22 7 47 10 55 9 30 40 226 50 310 3 30 8 66 10 80 2 14 7 57 10 95 4 39
8 86 10 105 26 239 21 763 -9 1020 -3 30 -8 73 -11 95 -2 22 -6 54 -9 71 -3
18 -8 52 -11 75 -3 24 -8 58 -11 74 -3 17 -7 39 -9 50 -5 33 -16 96 -21 119
-3 11 -9 41 -14 66 -5 25 -19 86 -30 135 -12 50 -23 97 -25 105 -18 91 -134
449 -202 625 -52 135 -169 409 -184 430 -3 6 -41 76 -82 157 -97 187 -295 517
-369 613 -5 6 -45 60 -90 120 -97 131 -151 196 -239 290 -37 38 -79 85 -94
103 -15 17 -31 32 -36 32 -9 0 -102 -56 -297 -177 -37 -23 -95 -59 -130 -80
-35 -21 -71 -43 -80 -48 -9 -6 -28 -18 -42 -26 -14 -9 -214 -133 -445 -274
-231 -142 -427 -263 -436 -269 -14 -10 4 -32 128 -161 225 -233 364 -413 524
-678 90 -149 238 -444 294 -587 20 -52 40 -104 45 -115 24 -57 104 -319 116
-378 2 -10 6 -27 9 -37 3 -10 8 -29 11 -42 13 -63 37 -185 39 -203 2 -11 8
-51 14 -90 47 -309 47 -713 1 -1025 -5 -36 -11 -78 -14 -95 -28 -197 -124
-530 -213 -740 -60 -143 -172 -351 -261 -485 -52 -80 -98 -147 -101 -150 -4
-3 -36 -41 -71 -85 -69 -85 -276 -296 -350 -356 -25 -20 -65 -53 -89 -74 -63
-51 -248 -173 -365 -239 -54 -31 -100 -56 -101 -56 -2 0 -45 -20 -97 -44 -225
-107 -601 -222 -823 -252 -16 -2 -55 -9 -85 -14 -30 -5 -82 -12 -115 -16 -33
-3 -66 -7 -72 -9 -8 -3 -13 6 -14 23 0 15 -1 1551 -1 3413 l-1 3386 -46 2
c-25 0 -56 3 -67 5 -12 3 -59 7 -105 11 -46 4 -100 8 -119 10 -19 2 -78 6
-130 10 -52 4 -111 9 -130 11 -36 5 -547 13 -552 9z m-440 -4317 c0 -1344 -2
-2446 -4 -2450 -3 -4 -15 -3 -27 2 -12 5 -53 18 -92 30 -216 66 -472 179 -640
284 -115 72 -304 208 -350 251 -11 11 -43 41 -70 66 -54 50 -185 186 -225 234
-59 70 -190 249 -190 259 0 3 -13 25 -30 49 -31 46 -141 259 -173 334 -62 145
-130 359 -153 482 -3 12 -11 51 -19 85 -14 63 -19 95 -30 181 -4 28 -8 60 -10
72 -22 138 -23 552 -1 670 2 10 7 43 11 73 40 303 164 636 325 879 203 305
483 543 830 704 150 70 282 116 465 162 165 41 210 50 305 62 25 2 47 7 49 9
29 28 29 -6 29 -2438z"></path>
<path d="M26768 22245 c-2 -2 -66 -6 -143 -10 -77 -3 -151 -8 -165 -10 -14 -2
-56 -7 -95 -10 -69 -5 -216 -22 -265 -30 -548 -89 -853 -180 -1220 -365 -158
-79 -387 -224 -398 -252 -2 -4 -8 -8 -14 -8 -5 0 -15 -6 -23 -12 -7 -7 -32
-29 -56 -48 -90 -71 -298 -289 -381 -401 -172 -229 -297 -469 -395 -754 -38
-110 -106 -366 -123 -460 -5 -33 -12 -69 -14 -80 -4 -23 -16 -99 -21 -135 -2
-14 -6 -43 -10 -65 -3 -22 -8 -65 -10 -95 -2 -30 -7 -80 -9 -110 -27 -278 -22
-726 10 -980 2 -19 6 -55 9 -80 7 -63 21 -162 31 -210 2 -14 7 -38 10 -55 3
-16 14 -70 25 -120 11 -49 22 -101 25 -115 10 -52 68 -250 109 -370 221 -654
615 -1257 1128 -1726 l67 -61 -605 0 c-333 0 -609 -3 -613 -7 -11 -12 -9
-1805 3 -1809 5 -2 2098 -3 4650 -3 l4640 1 1 913 c1 653 -2 915 -10 918 -6 2
-1098 5 -2426 7 -1328 2 -2428 6 -2445 10 -16 3 -66 8 -109 12 -43 4 -87 8
-97 10 -9 2 -39 6 -66 10 -311 42 -635 145 -953 304 -52 26 -114 60 -137 74
-24 15 -47 27 -53 27 -5 0 -10 5 -10 10 0 6 -4 10 -10 10 -11 0 -140 85 -225
149 -148 110 -319 267 -457 419 -88 96 -256 318 -303 399 -6 10 -33 56 -61
103 -188 316 -349 783 -389 1130 -4 30 -8 70 -10 89 -22 184 -21 551 1 666 2
11 6 38 9 60 3 22 10 63 15 90 6 28 12 60 15 73 13 69 82 256 124 337 34 67
122 191 173 245 12 14 50 48 83 76 187 158 431 262 765 328 98 19 120 22 253
40 29 4 85 10 222 21 176 15 667 18 3234 19 l2866 1 0 915 0 915 -3072 1
c-1690 1 -3073 0 -3075 -1z"></path>
<path d="M28198 12235 c-2 -1 -79 -5 -173 -9 -177 -7 -223 -10 -365 -27 -116
-14 -175 -23 -270 -39 -30 -6 -68 -12 -85 -15 -16 -3 -41 -8 -55 -11 -14 -3
-33 -7 -43 -9 -61 -13 -286 -70 -357 -91 -345 -104 -753 -284 -1050 -463 -96
-59 -354 -230 -397 -265 -10 -8 -65 -52 -123 -97 -176 -139 -379 -329 -550
-515 -258 -280 -530 -667 -705 -999 -25 -49 -51 -97 -56 -105 -11 -19 -74
-155 -127 -275 -55 -125 -156 -396 -188 -502 -63 -211 -137 -510 -158 -643 -4
-19 -8 -44 -10 -55 -2 -11 -9 -56 -16 -100 -6 -44 -13 -91 -15 -105 -2 -14 -6
-50 -10 -80 -3 -30 -8 -71 -10 -90 -4 -32 -11 -118 -20 -259 -6 -74 -6 -534 0
-591 2 -25 6 -88 10 -140 6 -100 8 -114 19 -195 4 -27 8 -68 11 -90 4 -38 11
-90 21 -145 2 -14 11 -68 20 -120 8 -52 20 -108 24 -125 5 -16 12 -46 15 -65
18 -106 105 -416 170 -600 93 -268 229 -574 354 -795 36 -63 85 -148 96 -166
6 -9 23 -39 40 -65 91 -151 310 -451 418 -574 207 -234 441 -468 562 -562 17
-12 39 -31 50 -41 11 -10 45 -37 75 -60 30 -23 57 -45 60 -48 33 -37 476 -329
500 -329 5 0 10 -5 10 -12 0 -6 3 -8 7 -5 3 4 13 1 22 -7 38 -34 365 -192 551
-266 223 -90 572 -198 730 -226 14 -3 41 -9 60 -14 19 -5 53 -11 75 -15 22 -3
47 -7 55 -10 27 -8 256 -39 365 -50 257 -26 841 -26 982 -1 10 2 50 7 88 10
39 4 111 13 160 21 50 8 110 17 135 20 24 4 48 8 51 11 4 2 24 6 45 9 22 4 47
8 56 11 10 3 30 7 45 10 102 17 467 123 593 171 270 103 276 105 515 223 322
159 713 415 940 615 17 15 65 57 107 93 43 37 142 132 220 212 150 153 171
176 255 277 29 35 58 70 65 78 62 68 240 317 341 475 184 289 398 734 501
1044 30 90 96 301 101 324 2 9 15 62 29 117 14 55 28 111 31 125 7 37 35 171
40 200 3 14 7 36 10 50 2 13 7 42 10 65 3 22 8 51 10 65 3 14 7 46 10 73 3 26
7 60 9 75 40 249 51 846 21 1102 -2 19 -7 58 -9 85 -14 135 -18 167 -31 260
-8 55 -17 111 -20 125 -3 14 -10 50 -16 80 -6 30 -13 69 -16 85 -2 17 -16 77
-30 135 -38 159 -39 162 -75 285 -16 55 -34 115 -40 134 -52 179 -236 618
-328 781 -4 8 -36 67 -71 130 -34 63 -78 140 -97 170 -221 347 -403 585 -632
823 -185 193 -293 291 -552 502 -91 74 -396 279 -516 347 -383 216 -732 362
-1147 478 -60 16 -119 32 -130 35 -113 24 -318 65 -350 69 -23 4 -50 8 -61 10
-23 5 -115 17 -154 21 -14 1 -50 5 -80 9 -108 12 -157 16 -335 21 -99 4 -188
8 -197 9 -9 2 -18 3 -20 1z m357 -1888 c11 -3 47 -8 80 -11 75 -9 247 -36 254
-41 3 -1 24 -6 46 -9 22 -4 48 -9 57 -12 9 -3 25 -6 35 -8 171 -34 470 -144
692 -256 215 -107 493 -292 649 -432 105 -94 304 -301 385 -403 77 -96 203
-274 233 -330 6 -11 25 -44 43 -74 153 -257 295 -639 356 -959 8 -42 17 -86
19 -97 2 -11 7 -45 11 -75 3 -30 8 -66 10 -80 24 -158 24 -625 0 -750 -1 -8
-6 -37 -9 -65 -4 -27 -8 -61 -11 -75 -3 -14 -7 -40 -10 -58 -11 -67 -36 -180
-61 -272 -28 -102 -111 -349 -124 -365 -4 -5 -13 -27 -19 -48 -35 -108 -274
-534 -326 -582 -6 -5 -19 -22 -28 -37 -66 -106 -334 -398 -480 -523 -239 -203
-528 -383 -812 -506 -112 -48 -405 -152 -405 -143 0 2 -12 -1 -26 -6 -58 -22
-335 -77 -474 -94 -218 -27 -647 -27 -815 -1 -16 3 -48 7 -70 10 -35 5 -78 12
-185 32 -73 13 -275 68 -375 103 -451 154 -840 397 -1171 734 -164 166 -225
238 -369 441 -32 46 -105 163 -142 230 -66 119 -176 355 -199 430 -2 6 -19 55
-38 110 -19 55 -44 136 -56 180 -12 44 -23 87 -25 95 -11 37 -24 98 -29 130
-3 19 -8 46 -11 60 -14 71 -36 243 -43 333 -12 182 -6 565 12 652 2 11 7 43
10 70 4 28 10 66 12 85 8 55 12 79 18 98 3 9 7 34 11 56 3 21 7 41 10 45 2 4
6 18 8 32 14 75 104 369 118 384 5 5 9 15 9 23 0 18 49 131 122 281 73 149
190 344 265 441 7 8 33 43 58 78 111 149 337 383 469 487 22 17 62 48 90 71
308 247 784 471 1181 555 33 7 62 13 65 14 108 23 242 42 360 52 41 3 77 7 79
9 6 6 521 -3 546 -9z"></path>
</g>
</svg><style>@media (prefers-color-scheme: light) { :root { filter: none; } }
</style></svg>